<mxfile host="app.diagrams.net" agent="Mozilla/5.0 (Windows NT 10.0; Win64; x64) AppleWebKit/537.36 (KHTML, like Gecko) Chrome/137.0.0.0 Safari/537.36" version="26.2.14">
  <diagram name="ページ1" id="uJLQbuFZ7j_eWbe-wUxK">
    <mxGraphModel dx="1584" dy="863" grid="1" gridSize="10" guides="1" tooltips="1" connect="1" arrows="1" fold="1" page="1" pageScale="1" pageWidth="827" pageHeight="1169" math="0" shadow="0">
      <root>
        <mxCell id="0" />
        <mxCell id="1" parent="0" />
        <mxCell id="7QV5RM0tw6dBP5alvUfI-29" value="" style="endArrow=none;html=1;rounded=0;dashed=1;" edge="1" parent="1">
          <mxGeometry width="50" height="50" relative="1" as="geometry">
            <mxPoint x="440" y="40" as="sourcePoint" />
            <mxPoint x="440" y="680" as="targetPoint" />
          </mxGeometry>
        </mxCell>
        <mxCell id="7QV5RM0tw6dBP5alvUfI-16" value="" style="rounded=0;whiteSpace=wrap;html=1;rotation=-90;fillColor=#D0C592;fontColor=#333333;strokeColor=#666666;" vertex="1" parent="1">
          <mxGeometry x="-100" y="380" width="480" height="120" as="geometry" />
        </mxCell>
        <mxCell id="7QV5RM0tw6dBP5alvUfI-20" value="" style="rounded=0;whiteSpace=wrap;html=1;rotation=0;fillColor=#D0C592;fontColor=#333333;strokeColor=#666666;" vertex="1" parent="1">
          <mxGeometry x="200" y="200" width="480" height="120" as="geometry" />
        </mxCell>
        <mxCell id="7QV5RM0tw6dBP5alvUfI-21" value="" style="rounded=0;whiteSpace=wrap;html=1;rotation=0;fillColor=#D0C592;fontColor=#333333;strokeColor=#666666;" vertex="1" parent="1">
          <mxGeometry x="200" y="320" width="480" height="120" as="geometry" />
        </mxCell>
        <mxCell id="7QV5RM0tw6dBP5alvUfI-22" value="" style="rounded=0;whiteSpace=wrap;html=1;rotation=0;fillColor=#D0C592;fontColor=#333333;strokeColor=#666666;" vertex="1" parent="1">
          <mxGeometry x="680" y="200" width="480" height="120" as="geometry" />
        </mxCell>
        <mxCell id="7QV5RM0tw6dBP5alvUfI-23" value="" style="rounded=0;whiteSpace=wrap;html=1;rotation=0;fillColor=#D0C592;fontColor=#333333;strokeColor=#666666;" vertex="1" parent="1">
          <mxGeometry x="680" y="320" width="480" height="120" as="geometry" />
        </mxCell>
        <mxCell id="7QV5RM0tw6dBP5alvUfI-24" value="" style="rounded=0;whiteSpace=wrap;html=1;rotation=-90;fillColor=#D0C592;fontColor=#333333;strokeColor=#666666;" vertex="1" parent="1">
          <mxGeometry x="980" y="380" width="480" height="120" as="geometry" />
        </mxCell>
        <mxCell id="7QV5RM0tw6dBP5alvUfI-25" value="&lt;font style=&quot;font-size: 21px;&quot;&gt;TF5&lt;/font&gt;&lt;div&gt;&lt;font style=&quot;font-size: 21px;&quot;&gt;メイン&lt;/font&gt;&lt;/div&gt;" style="rounded=0;whiteSpace=wrap;html=1;" vertex="1" parent="1">
          <mxGeometry x="340" y="325" width="200" height="110" as="geometry" />
        </mxCell>
        <mxCell id="7QV5RM0tw6dBP5alvUfI-26" value="&lt;span style=&quot;font-size: 21px;&quot;&gt;MGP24X&lt;/span&gt;" style="rounded=0;whiteSpace=wrap;html=1;" vertex="1" parent="1">
          <mxGeometry x="827" y="325" width="200" height="110" as="geometry" />
        </mxCell>
        <mxCell id="7QV5RM0tw6dBP5alvUfI-27" value="&lt;span style=&quot;font-size: 21px;&quot;&gt;LiveTrak L-8&lt;/span&gt;&lt;div&gt;&lt;span style=&quot;font-size: 21px;&quot;&gt;映信&lt;/span&gt;&lt;/div&gt;" style="rounded=0;whiteSpace=wrap;html=1;" vertex="1" parent="1">
          <mxGeometry x="1140" y="325" width="130" height="90" as="geometry" />
        </mxCell>
        <mxCell id="7QV5RM0tw6dBP5alvUfI-28" value="&lt;span style=&quot;font-size: 21px;&quot;&gt;MG16X&lt;/span&gt;" style="rounded=0;whiteSpace=wrap;html=1;" vertex="1" parent="1">
          <mxGeometry x="620" y="325" width="120" height="110" as="geometry" />
        </mxCell>
      </root>
    </mxGraphModel>
  </diagram>
</mxfile>
